<?xml version="1.0" encoding="UTF-8"?>
<svg width="1112px" height="369px" viewBox="0 0 1112 369" version="1.1" xmlns="http://www.w3.org/2000/svg" xmlns:xlink="http://www.w3.org/1999/xlink">
    <!-- Generator: Sketch 43.2 (39069) - http://www.bohemiancoding.com/sketch -->
    <title>Group 3</title>
    <desc>Created with Sketch.</desc>
    <defs></defs>
    <g id="Page-1" stroke="none" stroke-width="1" fill="none" fill-rule="evenodd">
        <g id="Group-3" fill-rule="nonzero">
            <g id="Group" transform="translate(422.000000, 48.000000)" fill="#FFFFFF">
                <polygon id="Shape" points="77.3469871 2.34938041 48.2356211 89.756629 18.9117633 2.34938041 0.637475168 2.34938041 37.8235267 108.109857 58.0102403 108.109857 95.1962918 2.34938041"></polygon>
                <polygon id="Shape" points="111.558154 2.34938041 111.558154 108.109857 172.330787 108.109857 172.330787 92.0507825 128.132509 92.0507825 128.132509 62.4562023 168.080953 62.4562023 168.080953 46.8559585 128.132509 46.8559585 128.132509 18.408455 171.268329 18.408455 171.268329 2.34938041"></polygon>
                <path d="M267.102096,28.0438997 C260.30236,21.1614392 250.952725,17.0319629 240.115647,17.0319629 C220.7789,17.0319629 206.966938,32.4027914 206.966938,55.3443264 C206.966938,78.5152769 221.416375,93.65669 240.54063,93.65669 C251.5902,93.65669 260.514852,90.2154597 268.164554,82.8741685 L268.164554,102.145058 C259.664885,107.651026 250.102758,109.94518 240.115647,109.94518 C209.941822,109.94518 189.755108,87.4624755 189.755108,55.3443264 C189.755108,22.996762 211.004281,0.74347296 240.115647,0.74347296 C250.102758,0.74347296 259.239902,3.03762647 267.102096,8.31417953 L267.102096,28.0438997 Z" id="Shape"></path>
                <polygon id="Shape" points="280.276582 2.34938041 280.276582 18.408455 311.300374 18.408455 311.300374 108.109857 328.08722 108.109857 328.08722 18.408455 358.89852 18.408455 358.89852 2.34938041"></polygon>
                <path d="M421.79607,17.0319629 C403.096798,17.0319629 388.434869,32.173376 388.434869,55.3443264 C388.434869,78.5152769 403.096798,93.65669 421.79607,93.65669 C440.495341,93.65669 455.15727,78.5152769 455.15727,55.3443264 C455.15727,32.173376 440.495341,17.0319629 421.79607,17.0319629 M421.79607,0.74347296 C449.844977,0.74347296 472.581591,22.996762 472.581591,55.3443264 C472.581591,87.6918909 450.057469,109.94518 421.79607,109.94518 C393.534671,109.94518 371.010548,87.6918909 371.010548,55.3443264 C371.010548,22.996762 393.322179,0.74347296 421.79607,0.74347296" id="Shape"></path>
                <path d="M511.042593,55.5737418 L519.329771,55.5737418 C532.716749,55.5737418 541.216418,49.3795273 541.216418,35.6146063 C541.216418,23.4555927 533.566716,16.3437168 518.692295,16.3437168 C516.77987,16.3437168 512.955019,16.5731322 511.042593,16.8025475 L511.042593,55.5737418 Z M511.042593,108.109857 L494.255747,108.109857 L494.255747,2.80821112 C500.205515,1.66113436 510.61761,0.97288831 518.692295,0.97288831 C544.403794,0.97288831 558.428247,13.1319019 558.428247,35.3851909 C558.428247,50.7560194 550.353562,61.9973716 539.091501,66.5856786 L568.62785,108.109857 L548.441137,108.109857 L522.517146,70.7151549 L511.467577,70.7151549 L511.467577,108.109857 L511.042593,108.109857 Z" id="Shape"></path>
            </g>
            <g id="Group-2" transform="translate(423.000000, 209.000000)" fill="#FFFFFF">
                <rect id="Rectangle-path" x="0.637046172" y="2.34938041" width="16.7868461" height="105.531061"></rect>
                <polygon id="Shape" points="103.058057 2.34938041 103.058057 80.580015 53.7599769 2.34938041 36.760639 2.34938041 36.760639 108.109857 53.1225017 108.109857 53.1225017 30.7968839 103.270548 108.109857 119.419919 108.109857 119.419919 2.34938041"></polygon>
                <path d="M141.306567,83.5624146 C148.956269,89.756629 156.818462,94.3449361 167.230557,94.3449361 C177.005176,94.3449361 185.292353,90.2154597 185.292353,79.6623536 C185.292353,69.7974935 178.280126,66.1268479 167.443049,62.6856177 C148.743777,56.2619878 140.031616,48.2324506 140.031616,30.5674686 C140.031616,11.2965791 154.268562,0.97288831 171.055408,0.97288831 C181.679994,0.97288831 189.542188,4.18470322 196.129431,9.00242559 L196.129431,27.1262383 C188.479729,20.4731931 181.042519,16.5731322 171.692883,16.5731322 C162.343247,16.5731322 156.605971,22.0791006 156.605971,30.3380532 C156.605971,38.8264212 162.130755,42.4970668 174.455275,46.6265431 C193.57953,52.8207576 201.866708,61.5385409 201.866708,79.4329383 C201.866708,100.539151 186.354812,110.174595 167.443049,110.174595 C156.818462,110.174595 147.681318,106.96278 141.519058,102.374473 L141.519058,83.5624146 L141.306567,83.5624146 Z" id="Shape"></path>
                <polygon id="Shape" points="213.341261 2.34938041 213.341261 18.408455 244.15256 18.408455 244.15256 108.109857 260.939407 108.109857 260.939407 18.408455 291.750706 18.408455 291.750706 2.34938041"></polygon>
                <rect id="Rectangle-path" x="309.812503" y="2.34938041" width="16.7868461" height="105.531061"></rect>
                <polygon id="Shape" points="344.448654 2.34938041 344.448654 18.408455 375.472445 18.408455 375.472445 108.109857 392.259291 108.109857 392.259291 18.408455 423.070591 18.408455 423.070591 2.34938041"></polygon>
                <path d="M439.00747,2.57879577 L455.794316,2.57879577 L455.794316,68.8798321 C455.794316,89.068383 465.568936,94.5743514 480.230865,94.5743514 C487.880567,94.5743514 493.830335,93.8861054 499.567611,92.7390286 L499.567611,2.57879577 L516.354457,2.57879577 L516.354457,105.127458 C507.217313,107.880442 491.917909,109.94518 480.230865,109.94518 C457.919234,109.94518 439.00747,101.456812 439.00747,72.091647 L439.00747,2.57879577 Z" id="Shape"></path>
                <polygon id="Shape" points="534.203762 2.34938041 534.203762 18.408455 565.227554 18.408455 565.227554 108.109857 582.0144 108.109857 582.0144 18.408455 612.8257 18.408455 612.8257 2.34938041"></polygon>
                <polygon id="Shape" points="627.275137 2.34938041 627.275137 108.109857 688.047769 108.109857 688.047769 92.0507825 644.061983 92.0507825 644.061983 62.4562023 684.010427 62.4562023 684.010427 46.8559585 644.061983 46.8559585 644.061983 18.408455 687.197803 18.408455 687.197803 2.34938041"></polygon>
            </g>
            <polygon id="Shape" fill="#FFFFFF" points="186 271.9 102.5 52.5 144 52.5 144 25 0 25 0 52.5 41.6 52.5 150.5 337.8 163.9 369 193.3 290"></polygon>
            <polygon id="Shape" fill="#E4007F" points="295.2 0 215.4 35 201 68.5 264.5 42.1 222.1 146.9 221.6 147.9 235.8 183.3 288.4 51.7 316.1 114.6 330.2 81.6"></polygon>
        </g>
    </g>
</svg>